<svg width="2301" height="2314" viewBox="0 0 2301 2314" fill="none" xmlns="http://www.w3.org/2000/svg">
<g style="mix-blend-mode:multiply" filter="url(#filter0_d_121_1130)">
<path d="M2120.55 30.043H2207.13C2226.78 30.043 2243.21 47.2587 2256.44 81.6901C2269.87 115.078 2279.89 164.117 2286.5 228.806C2293.12 292.452 2296.42 370.184 2296.42 462.001V1839.26C2296.42 1934.2 2292.92 2014.02 2285.9 2078.71C2279.09 2142.36 2268.46 2190.87 2254.03 2224.26C2239.8 2257.65 2221.66 2274.34 2199.62 2274.34H2120.55V30.043ZM2199.92 1931.6C2204.33 1931.6 2207.83 1928.47 2210.44 1922.21C2213.25 1914.9 2215.35 1903.42 2216.75 1887.77C2218.16 1871.08 2218.86 1849.17 2218.86 1822.04V474.521C2218.86 450.523 2218.16 430.699 2216.75 415.049C2215.35 399.398 2213.25 388.443 2210.44 382.182C2207.63 375.922 2204.13 372.792 2199.92 372.792H2196.01V1931.6H2199.92Z" fill="#F0F0F0"/>
</g>
<g style="mix-blend-mode:multiply" filter="url(#filter1_d_121_1130)">
<path d="M1747.45 30.043H2093.19V551.209H1903.18V868.917H2058.61V1394.78H1903.18V1750.05H2093.19V2274.34H1747.45V30.043Z" fill="#F0F0F0"/>
</g>
<g style="mix-blend-mode:multiply" filter="url(#filter2_d_121_1130)">
<path d="M1547.22 474.521H1479.87V30.043H1717.38V474.521H1650.04V2274.34H1547.22V474.521Z" fill="#F0F0F0"/>
</g>
<g style="mix-blend-mode:multiply" filter="url(#filter3_d_121_1130)">
<path d="M1360.21 30.043H1447.1L1474.46 2274.34H1417.33L1412.52 1626.41L1411.62 1422.95L1403.5 321.145H1402.9L1395.69 1422.95L1394.79 1635.8L1390.58 2274.34H1334.66L1360.21 30.043ZM1368.93 1397.91H1441.99V1665.53H1368.93V1397.91Z" fill="#F0F0F0"/>
</g>
<g style="mix-blend-mode:multiply" filter="url(#filter4_d_121_1130)">
<path d="M1160.58 30.043H1244.46C1263.51 30.043 1278.94 45.1719 1290.76 75.4298C1302.79 104.644 1311.61 150.553 1317.22 213.155C1323.03 274.715 1325.94 355.055 1325.94 454.175V704.586C1325.94 802.663 1323.13 881.959 1317.52 942.475C1312.11 1002.99 1304.39 1047.33 1294.37 1075.51C1284.35 1103.68 1272.02 1120.37 1257.39 1125.59L1262.8 1100.55C1279.64 1107.85 1292.57 1121.94 1301.59 1142.8C1310.61 1162.63 1316.82 1191.32 1320.23 1228.88C1323.63 1266.44 1325.34 1316.53 1325.34 1379.13V2274.34H1254.39V1372.87C1254.39 1345.74 1253.68 1324.87 1252.28 1310.27C1250.88 1294.61 1248.57 1283.14 1245.37 1275.83C1242.16 1268.53 1237.45 1264.88 1231.24 1264.88V2274.34H1160.58V30.043ZM1233.64 961.256C1241.06 961.256 1246.47 947.692 1249.88 920.564C1253.28 892.393 1254.99 851.18 1254.99 796.924V462.001C1254.99 416.092 1253.28 382.704 1249.88 361.837C1246.47 340.969 1240.96 330.535 1233.34 330.535H1231.24V961.256H1233.64Z" fill="#F0F0F0"/>
</g>
<g style="mix-blend-mode:multiply" filter="url(#filter5_d_121_1130)">
<path d="M1031.61 2305.65C1008.76 2305.65 989.416 2285.82 973.582 2246.17C957.748 2206.53 945.822 2150.18 937.805 2077.15C929.788 2004.11 925.779 1916.47 925.779 1814.22V30.043H1016.57V1818.91C1016.57 1845 1017.88 1866.38 1020.48 1883.08C1023.09 1898.73 1026.8 1906.55 1031.61 1906.55C1036.42 1906.55 1040.12 1898.73 1042.73 1883.08C1045.34 1866.38 1046.64 1845 1046.64 1818.91V30.043H1137.43V1814.22C1137.43 1916.47 1133.43 2004.63 1125.41 2078.71C1117.59 2151.75 1105.77 2208.09 1089.93 2247.74C1074.1 2286.34 1054.66 2305.65 1031.61 2305.65Z" fill="#F0F0F0"/>
</g>
<g style="mix-blend-mode:multiply" filter="url(#filter6_d_121_1130)">
<path d="M712.322 512.083H633.553V30.043H906.84V512.083H828.071V2274.34H712.322V512.083Z" fill="#F0F0F0"/>
</g>
<g style="mix-blend-mode:multiply" filter="url(#filter7_d_121_1130)">
<path d="M317.873 30.043H520.208L629.042 2274.34H481.725L463.085 1781.35L449.857 1399.47L412.276 388.443H425.204L387.322 1401.04L372.891 1803.26L355.454 2274.34H209.641L317.873 30.043ZM316.971 1346.26H532.234V1865.86H316.971V1346.26Z" fill="#F0F0F0"/>
</g>
<g style="mix-blend-mode:multiply" filter="url(#filter8_d_121_1130)">
<path d="M102.612 2304.08C81.5666 2304.08 63.6281 2283.73 48.7962 2243.04C33.9644 2201.31 22.7403 2142.88 15.1239 2067.75C7.70796 1992.63 4 1905.51 4 1806.39V1501.2H89.6841V1809.52C89.6841 1844.99 90.8866 1871.6 93.2918 1889.34C95.697 1907.07 99.1043 1915.94 103.514 1915.94C108.525 1915.94 112.132 1905.51 114.337 1884.64C116.742 1862.73 117.945 1832.47 117.945 1793.87V1651.45C117.945 1608.67 117.343 1572.67 116.141 1543.46C115.139 1514.24 113.435 1489.2 111.03 1468.33C108.825 1446.42 105.819 1425.56 102.011 1405.73C101.409 1402.6 100.808 1399.99 100.207 1397.91C99.8058 1395.82 99.3047 1393.21 98.7034 1390.08L49.9988 1167.84C38.7747 1118.8 29.8555 1068.72 23.2413 1017.6C16.6271 966.471 11.8168 911.172 8.81033 851.7C6.00431 791.184 4.60129 722.321 4.60129 645.111V543.382C4.60129 431.741 8.71012 335.228 16.9278 253.845C25.3459 171.418 37.1713 108.816 52.404 66.0374C67.8371 22.2156 85.9761 0.304688 106.821 0.304688C126.062 0.304688 142.999 20.1288 157.63 59.7771C172.261 99.4254 183.586 158.376 191.603 236.629C199.821 314.883 203.929 410.352 203.929 523.036V723.364H118.847V490.17C118.847 457.825 117.744 432.784 115.54 415.047C113.535 397.309 110.328 388.441 105.919 388.441C101.309 388.441 97.8015 397.831 95.3963 416.612C92.9912 434.349 91.7886 463.042 91.7886 502.69V579.378V588.769C91.989 622.157 92.5903 651.371 93.5925 676.412C94.5946 700.41 96.3985 723.364 99.0041 745.275C101.61 766.143 105.017 787.01 109.226 807.878L157.029 1034.81C157.43 1035.86 157.73 1037.42 157.931 1039.51C168.954 1092.72 177.773 1143.32 184.387 1191.32C191.002 1238.27 196.012 1294.61 199.42 1360.35C203.028 1426.08 204.831 1505.37 204.831 1598.24V1748.48C204.831 1868.47 200.923 1970.2 193.106 2053.67C185.289 2136.1 173.765 2198.7 158.532 2241.48C143.299 2283.21 124.659 2304.08 102.612 2304.08Z" fill="#F0F0F0"/>
</g>
<defs>
<filter id="filter0_d_121_1130" x="2116.55" y="30.043" width="183.877" height="2252.3" filterUnits="userSpaceOnUse" color-interpolation-filters="sRGB">
<feFlood flood-opacity="0" result="BackgroundImageFix"/>
<feColorMatrix in="SourceAlpha" type="matrix" values="0 0 0 0 0 0 0 0 0 0 0 0 0 0 0 0 0 0 127 0" result="hardAlpha"/>
<feOffset dy="4"/>
<feGaussianBlur stdDeviation="2"/>
<feComposite in2="hardAlpha" operator="out"/>
<feColorMatrix type="matrix" values="0 0 0 0 0 0 0 0 0 0 0 0 0 0 0 0 0 0 0.25 0"/>
<feBlend mode="normal" in2="BackgroundImageFix" result="effect1_dropShadow_121_1130"/>
<feBlend mode="normal" in="SourceGraphic" in2="effect1_dropShadow_121_1130" result="shape"/>
</filter>
<filter id="filter1_d_121_1130" x="1743.45" y="30.043" width="353.742" height="2252.3" filterUnits="userSpaceOnUse" color-interpolation-filters="sRGB">
<feFlood flood-opacity="0" result="BackgroundImageFix"/>
<feColorMatrix in="SourceAlpha" type="matrix" values="0 0 0 0 0 0 0 0 0 0 0 0 0 0 0 0 0 0 127 0" result="hardAlpha"/>
<feOffset dy="4"/>
<feGaussianBlur stdDeviation="2"/>
<feComposite in2="hardAlpha" operator="out"/>
<feColorMatrix type="matrix" values="0 0 0 0 0 0 0 0 0 0 0 0 0 0 0 0 0 0 0.25 0"/>
<feBlend mode="normal" in2="BackgroundImageFix" result="effect1_dropShadow_121_1130"/>
<feBlend mode="normal" in="SourceGraphic" in2="effect1_dropShadow_121_1130" result="shape"/>
</filter>
<filter id="filter2_d_121_1130" x="1475.87" y="30.043" width="245.51" height="2252.3" filterUnits="userSpaceOnUse" color-interpolation-filters="sRGB">
<feFlood flood-opacity="0" result="BackgroundImageFix"/>
<feColorMatrix in="SourceAlpha" type="matrix" values="0 0 0 0 0 0 0 0 0 0 0 0 0 0 0 0 0 0 127 0" result="hardAlpha"/>
<feOffset dy="4"/>
<feGaussianBlur stdDeviation="2"/>
<feComposite in2="hardAlpha" operator="out"/>
<feColorMatrix type="matrix" values="0 0 0 0 0 0 0 0 0 0 0 0 0 0 0 0 0 0 0.25 0"/>
<feBlend mode="normal" in2="BackgroundImageFix" result="effect1_dropShadow_121_1130"/>
<feBlend mode="normal" in="SourceGraphic" in2="effect1_dropShadow_121_1130" result="shape"/>
</filter>
<filter id="filter3_d_121_1130" x="1330.66" y="30.043" width="147.801" height="2252.3" filterUnits="userSpaceOnUse" color-interpolation-filters="sRGB">
<feFlood flood-opacity="0" result="BackgroundImageFix"/>
<feColorMatrix in="SourceAlpha" type="matrix" values="0 0 0 0 0 0 0 0 0 0 0 0 0 0 0 0 0 0 127 0" result="hardAlpha"/>
<feOffset dy="4"/>
<feGaussianBlur stdDeviation="2"/>
<feComposite in2="hardAlpha" operator="out"/>
<feColorMatrix type="matrix" values="0 0 0 0 0 0 0 0 0 0 0 0 0 0 0 0 0 0 0.25 0"/>
<feBlend mode="normal" in2="BackgroundImageFix" result="effect1_dropShadow_121_1130"/>
<feBlend mode="normal" in="SourceGraphic" in2="effect1_dropShadow_121_1130" result="shape"/>
</filter>
<filter id="filter4_d_121_1130" x="1156.58" y="30.043" width="173.355" height="2252.3" filterUnits="userSpaceOnUse" color-interpolation-filters="sRGB">
<feFlood flood-opacity="0" result="BackgroundImageFix"/>
<feColorMatrix in="SourceAlpha" type="matrix" values="0 0 0 0 0 0 0 0 0 0 0 0 0 0 0 0 0 0 127 0" result="hardAlpha"/>
<feOffset dy="4"/>
<feGaussianBlur stdDeviation="2"/>
<feComposite in2="hardAlpha" operator="out"/>
<feColorMatrix type="matrix" values="0 0 0 0 0 0 0 0 0 0 0 0 0 0 0 0 0 0 0.25 0"/>
<feBlend mode="normal" in2="BackgroundImageFix" result="effect1_dropShadow_121_1130"/>
<feBlend mode="normal" in="SourceGraphic" in2="effect1_dropShadow_121_1130" result="shape"/>
</filter>
<filter id="filter5_d_121_1130" x="921.779" y="30.043" width="219.654" height="2283.6" filterUnits="userSpaceOnUse" color-interpolation-filters="sRGB">
<feFlood flood-opacity="0" result="BackgroundImageFix"/>
<feColorMatrix in="SourceAlpha" type="matrix" values="0 0 0 0 0 0 0 0 0 0 0 0 0 0 0 0 0 0 127 0" result="hardAlpha"/>
<feOffset dy="4"/>
<feGaussianBlur stdDeviation="2"/>
<feComposite in2="hardAlpha" operator="out"/>
<feColorMatrix type="matrix" values="0 0 0 0 0 0 0 0 0 0 0 0 0 0 0 0 0 0 0.25 0"/>
<feBlend mode="normal" in2="BackgroundImageFix" result="effect1_dropShadow_121_1130"/>
<feBlend mode="normal" in="SourceGraphic" in2="effect1_dropShadow_121_1130" result="shape"/>
</filter>
<filter id="filter6_d_121_1130" x="629.553" y="30.043" width="281.287" height="2252.3" filterUnits="userSpaceOnUse" color-interpolation-filters="sRGB">
<feFlood flood-opacity="0" result="BackgroundImageFix"/>
<feColorMatrix in="SourceAlpha" type="matrix" values="0 0 0 0 0 0 0 0 0 0 0 0 0 0 0 0 0 0 127 0" result="hardAlpha"/>
<feOffset dy="4"/>
<feGaussianBlur stdDeviation="2"/>
<feComposite in2="hardAlpha" operator="out"/>
<feColorMatrix type="matrix" values="0 0 0 0 0 0 0 0 0 0 0 0 0 0 0 0 0 0 0.25 0"/>
<feBlend mode="normal" in2="BackgroundImageFix" result="effect1_dropShadow_121_1130"/>
<feBlend mode="normal" in="SourceGraphic" in2="effect1_dropShadow_121_1130" result="shape"/>
</filter>
<filter id="filter7_d_121_1130" x="205.641" y="30.043" width="427.4" height="2252.3" filterUnits="userSpaceOnUse" color-interpolation-filters="sRGB">
<feFlood flood-opacity="0" result="BackgroundImageFix"/>
<feColorMatrix in="SourceAlpha" type="matrix" values="0 0 0 0 0 0 0 0 0 0 0 0 0 0 0 0 0 0 127 0" result="hardAlpha"/>
<feOffset dy="4"/>
<feGaussianBlur stdDeviation="2"/>
<feComposite in2="hardAlpha" operator="out"/>
<feColorMatrix type="matrix" values="0 0 0 0 0 0 0 0 0 0 0 0 0 0 0 0 0 0 0.25 0"/>
<feBlend mode="normal" in2="BackgroundImageFix" result="effect1_dropShadow_121_1130"/>
<feBlend mode="normal" in="SourceGraphic" in2="effect1_dropShadow_121_1130" result="shape"/>
</filter>
<filter id="filter8_d_121_1130" x="0" y="0.304688" width="208.832" height="2311.77" filterUnits="userSpaceOnUse" color-interpolation-filters="sRGB">
<feFlood flood-opacity="0" result="BackgroundImageFix"/>
<feColorMatrix in="SourceAlpha" type="matrix" values="0 0 0 0 0 0 0 0 0 0 0 0 0 0 0 0 0 0 127 0" result="hardAlpha"/>
<feOffset dy="4"/>
<feGaussianBlur stdDeviation="2"/>
<feComposite in2="hardAlpha" operator="out"/>
<feColorMatrix type="matrix" values="0 0 0 0 0 0 0 0 0 0 0 0 0 0 0 0 0 0 0.25 0"/>
<feBlend mode="normal" in2="BackgroundImageFix" result="effect1_dropShadow_121_1130"/>
<feBlend mode="normal" in="SourceGraphic" in2="effect1_dropShadow_121_1130" result="shape"/>
</filter>
</defs>
</svg>
