<svg width="2301" height="1063" viewBox="0 0 2301 1063" fill="none" xmlns="http://www.w3.org/2000/svg">
<g style="mix-blend-mode:multiply" filter="url(#filter0_d_121_1174)">
<path d="M1587.06 11.9062H2032.88C2090.35 11.9062 2137.97 22.8467 2175.73 44.7277C2213.74 66.6086 2242 98.9544 2260.54 141.765C2279.07 184.576 2288.33 237.375 2288.33 300.164C2288.33 365.331 2279.42 418.607 2261.59 459.99C2243.76 501.374 2220.07 532.055 2190.51 552.033C2161.19 572.011 2127.88 583.427 2090.58 586.281L2118.73 568.444C2158.38 575.103 2190.87 586.995 2216.2 604.119C2241.53 620.768 2261.24 648.119 2275.31 686.173C2289.39 723.751 2296.43 775.599 2296.43 841.718V1035.08H2021.97V845.999C2021.97 806.518 2018.1 775.837 2010.36 753.956C2002.62 731.599 1990.77 715.902 1974.82 706.865C1958.87 697.827 1937.64 693.308 1911.13 693.308H1861.52V1035.08H1587.06V11.9062ZM1934.35 459.277C1960.39 459.277 1980.68 450.477 1995.23 432.877C2009.77 415.277 2017.04 386.974 2017.04 347.969C2017.04 310.867 2009.89 284.705 1995.58 269.483C1981.5 253.786 1961.1 245.937 1934.35 245.937H1861.52V459.277H1934.35Z" fill="#F0F0F0"/>
</g>
<g style="mix-blend-mode:multiply" filter="url(#filter1_d_121_1174)">
<path d="M1175.37 11.9062H1529.7V235.235H1338.28V399.342H1495.57V623.384H1338.28V811.037H1529.7V1035.08H1175.37V11.9062Z" fill="#F0F0F0"/>
</g>
<g style="mix-blend-mode:multiply" filter="url(#filter2_d_121_1174)">
<path d="M615.195 11.9062H890.709C942.785 11.9062 987.355 23.3224 1024.42 46.1547C1061.48 68.987 1090.34 106.09 1110.98 157.462C1131.62 208.359 1141.94 275.191 1141.94 357.958C1141.94 444.531 1131.86 514.93 1111.68 569.157C1091.51 623.384 1063.12 662.865 1026.53 687.6C989.936 711.859 945.952 723.989 894.579 723.989H829.835V1035.08H615.195V11.9062ZM855.522 492.812C879.214 492.812 897.511 482.347 910.413 461.417C923.315 440.012 929.766 406.953 929.766 362.239C929.766 333.223 926.834 309.915 920.969 292.315C915.105 274.24 906.66 261.159 895.635 253.072C884.844 244.986 871.473 240.943 855.522 240.943H829.835V492.812H855.522Z" fill="#F0F0F0"/>
</g>
<g style="mix-blend-mode:multiply" filter="url(#filter3_d_121_1174)">
<path d="M392.111 1054.34C354.578 1054.34 323.145 1043.64 297.81 1022.24C272.476 1000.35 253.475 969.198 240.808 928.766C228.14 887.858 221.807 838.388 221.807 780.356V11.9062H359.739V771.794C359.739 793.199 362.554 809.848 368.184 821.74C373.814 833.631 381.79 839.577 392.111 839.577C402.667 839.577 410.643 833.631 416.038 821.74C421.668 809.848 424.483 793.199 424.483 771.794V11.9062H562.416V780.356C562.416 838.388 556.082 887.858 543.415 928.766C530.747 969.198 511.746 1000.35 486.412 1022.24C461.077 1043.64 429.644 1054.34 392.111 1054.34Z" fill="#F0F0F0"/>
</g>
<g style="mix-blend-mode:multiply" filter="url(#filter4_d_121_1174)">
<path d="M98.6527 1046.49C78.2443 1046.49 60.8854 1038.64 46.5761 1022.95C32.5014 1007.25 21.828 985.131 14.5561 956.591C7.51869 928.051 4 894.991 4 857.413V671.187H86.6892V856.7C86.6892 869.067 87.7448 878.581 89.856 885.24C91.9672 891.899 95.134 895.229 99.3564 895.229C103.813 895.229 107.098 891.424 109.209 883.813C111.32 876.202 112.376 865.262 112.376 850.992V731.122C112.376 713.998 111.789 699.49 110.616 687.598C109.678 675.23 108.036 664.528 105.69 655.49C103.579 646.452 100.764 637.652 97.2452 629.09C96.5415 627.663 95.955 626.712 95.4859 626.236C95.2513 625.285 94.7821 624.096 94.0784 622.669L45.8724 512.075C36.0201 489.718 28.0444 468.55 21.9453 448.572C16.0808 428.118 11.6238 405.999 8.57429 382.216C5.75934 358.432 4.35187 331.319 4.35187 300.876V207.406C4.35187 164.595 8.22242 127.731 15.9635 96.8121C23.9392 65.4176 35.3163 41.634 50.0948 25.4611C64.8733 8.81256 82.3494 0.488281 102.523 0.488281C121.055 0.488281 137.358 8.09905 151.433 23.3206C165.508 38.5421 176.416 61.1366 184.157 91.104C191.898 120.596 195.768 156.747 195.768 199.557V334.411H113.431V188.141C113.431 176.249 112.493 167.212 110.616 161.028C108.74 154.368 105.69 151.039 101.468 151.039C97.0106 151.039 93.7265 154.368 91.6153 161.028C89.5041 167.687 88.4485 178.152 88.4485 192.422V282.325V286.606C88.6831 299.924 89.2695 311.816 90.2078 322.281C91.3807 332.27 93.1401 341.784 95.4859 350.821C97.8317 359.859 101.116 369.373 105.338 379.362L152.137 488.529C152.606 489.004 152.958 489.718 153.192 490.669C163.045 513.977 170.903 535.383 176.768 554.885C182.867 573.912 187.558 596.506 190.842 622.669C194.361 648.355 196.12 679.274 196.12 715.425V838.148C196.12 882.862 192.367 920.678 184.861 951.596C177.589 982.515 166.681 1006.06 152.137 1022.23C137.593 1038.41 119.765 1046.49 98.6527 1046.49Z" fill="#F0F0F0"/>
</g>
<defs>
<filter id="filter0_d_121_1174" x="1583.06" y="11.9062" width="717.367" height="1031.17" filterUnits="userSpaceOnUse" color-interpolation-filters="sRGB">
<feFlood flood-opacity="0" result="BackgroundImageFix"/>
<feColorMatrix in="SourceAlpha" type="matrix" values="0 0 0 0 0 0 0 0 0 0 0 0 0 0 0 0 0 0 127 0" result="hardAlpha"/>
<feOffset dy="4"/>
<feGaussianBlur stdDeviation="2"/>
<feComposite in2="hardAlpha" operator="out"/>
<feColorMatrix type="matrix" values="0 0 0 0 0 0 0 0 0 0 0 0 0 0 0 0 0 0 0.25 0"/>
<feBlend mode="normal" in2="BackgroundImageFix" result="effect1_dropShadow_121_1174"/>
<feBlend mode="normal" in="SourceGraphic" in2="effect1_dropShadow_121_1174" result="shape"/>
</filter>
<filter id="filter1_d_121_1174" x="1171.37" y="11.9062" width="362.332" height="1031.17" filterUnits="userSpaceOnUse" color-interpolation-filters="sRGB">
<feFlood flood-opacity="0" result="BackgroundImageFix"/>
<feColorMatrix in="SourceAlpha" type="matrix" values="0 0 0 0 0 0 0 0 0 0 0 0 0 0 0 0 0 0 127 0" result="hardAlpha"/>
<feOffset dy="4"/>
<feGaussianBlur stdDeviation="2"/>
<feComposite in2="hardAlpha" operator="out"/>
<feColorMatrix type="matrix" values="0 0 0 0 0 0 0 0 0 0 0 0 0 0 0 0 0 0 0.25 0"/>
<feBlend mode="normal" in2="BackgroundImageFix" result="effect1_dropShadow_121_1174"/>
<feBlend mode="normal" in="SourceGraphic" in2="effect1_dropShadow_121_1174" result="shape"/>
</filter>
<filter id="filter2_d_121_1174" x="611.195" y="11.9062" width="534.748" height="1031.17" filterUnits="userSpaceOnUse" color-interpolation-filters="sRGB">
<feFlood flood-opacity="0" result="BackgroundImageFix"/>
<feColorMatrix in="SourceAlpha" type="matrix" values="0 0 0 0 0 0 0 0 0 0 0 0 0 0 0 0 0 0 127 0" result="hardAlpha"/>
<feOffset dy="4"/>
<feGaussianBlur stdDeviation="2"/>
<feComposite in2="hardAlpha" operator="out"/>
<feColorMatrix type="matrix" values="0 0 0 0 0 0 0 0 0 0 0 0 0 0 0 0 0 0 0.25 0"/>
<feBlend mode="normal" in2="BackgroundImageFix" result="effect1_dropShadow_121_1174"/>
<feBlend mode="normal" in="SourceGraphic" in2="effect1_dropShadow_121_1174" result="shape"/>
</filter>
<filter id="filter3_d_121_1174" x="217.807" y="11.9062" width="348.609" height="1050.44" filterUnits="userSpaceOnUse" color-interpolation-filters="sRGB">
<feFlood flood-opacity="0" result="BackgroundImageFix"/>
<feColorMatrix in="SourceAlpha" type="matrix" values="0 0 0 0 0 0 0 0 0 0 0 0 0 0 0 0 0 0 127 0" result="hardAlpha"/>
<feOffset dy="4"/>
<feGaussianBlur stdDeviation="2"/>
<feComposite in2="hardAlpha" operator="out"/>
<feColorMatrix type="matrix" values="0 0 0 0 0 0 0 0 0 0 0 0 0 0 0 0 0 0 0.25 0"/>
<feBlend mode="normal" in2="BackgroundImageFix" result="effect1_dropShadow_121_1174"/>
<feBlend mode="normal" in="SourceGraphic" in2="effect1_dropShadow_121_1174" result="shape"/>
</filter>
<filter id="filter4_d_121_1174" x="0" y="0.488281" width="200.121" height="1054" filterUnits="userSpaceOnUse" color-interpolation-filters="sRGB">
<feFlood flood-opacity="0" result="BackgroundImageFix"/>
<feColorMatrix in="SourceAlpha" type="matrix" values="0 0 0 0 0 0 0 0 0 0 0 0 0 0 0 0 0 0 127 0" result="hardAlpha"/>
<feOffset dy="4"/>
<feGaussianBlur stdDeviation="2"/>
<feComposite in2="hardAlpha" operator="out"/>
<feColorMatrix type="matrix" values="0 0 0 0 0 0 0 0 0 0 0 0 0 0 0 0 0 0 0.25 0"/>
<feBlend mode="normal" in2="BackgroundImageFix" result="effect1_dropShadow_121_1174"/>
<feBlend mode="normal" in="SourceGraphic" in2="effect1_dropShadow_121_1174" result="shape"/>
</filter>
</defs>
</svg>
